<svg xmlns="http://www.w3.org/2000/svg" width="2048" height="2048" viewBox="0 0 2048 2048"><path fill="#0A0A52" d="M1243 1236q-45-51-99-90t-116-67t-126-41t-134-14q-88 0-170 23t-153 64t-129 100t-100 130t-65 153t-23 170H0q0-120 35-231t101-205t156-167t204-115q-113-74-176-186t-64-248q0-106 40-199t109-163T568 40T768 0t199 40t163 109t110 163t40 200q0 66-16 129t-48 119t-75 103t-101 83q84 32 158 82t135 117zM384 512q0 80 30 149t82 122t122 83t150 30q79 0 149-30t122-82t83-122t30-150q0-79-30-149t-82-122t-123-83t-149-30q-80 0-149 30t-122 82t-83 123t-30 149m1464 384q42 0 78 15t64 41t42 63t16 79q0 39-15 76t-43 65l-717 717l-377 94l94-377l717-716q29-29 65-43t76-14m51 249q21-21 21-51q0-31-20-50t-52-20q-14 0-27 4t-23 15l-692 692l-34 135l135-34z" stroke-width="51" stroke="#0A0A52"/></svg>