<svg xmlns="http://www.w3.org/2000/svg" width="1024" height="1024" viewBox="0 0 1024 1024"><path fill="#0A0A52" d="M128 224v512a64 64 0 0 0 64 64h640a64 64 0 0 0 64-64V224zm0-64h768a64 64 0 0 1 64 64v512a128 128 0 0 1-128 128H192A128 128 0 0 1 64 736V224a64 64 0 0 1 64-64" stroke-width="25.5" stroke="#0A0A52"/><path fill="#0A0A52" d="M904 224L656.512 506.88a192 192 0 0 1-289.024 0L120 224zm-698.944 0l210.56 240.704a128 128 0 0 0 192.704 0L818.944 224z" stroke-width="25.5" stroke="#0A0A52"/></svg>